<?xml version="1.0" encoding="UTF-8"?>
<!-- Generator: Adobe Illustrator 24.2.3, SVG Export Plug-In . SVG Version: 6.00 Build 0)  -->
<svg version="1.1" id="Layer_1" xmlns="http://www.w3.org/2000/svg" xmlns:xlink="http://www.w3.org/1999/xlink" x="0px" y="0px" viewBox="0 0 387 52" style="enable-background:new 0 0 387 52;" xml:space="preserve">
<style type="text/css">
	.st0{fill:#00ABC8;}
	.st1{fill:#FFFFFF;}
	.st2{fill:#E1251B;}
</style>
<g>
	<g>
		<path class="st0" d="M172.1,47.3c-1.3,0.7-2.4,1.1-3.8,1.1c-3.6,0-5.9-2.6-5.9-6.3s2.4-6.3,6-6.3c1.5,0,2.6,0.3,3.6,1l0.1,2.5    h-0.7l-0.4-2.6l0.7,0.2v0.6c-1-0.8-1.9-1.2-3.2-1.2c-3,0-5,2.2-5,5.7s1.9,5.7,5,5.7c1.2,0,2.2-0.3,3.2-0.9l-0.5,0.5v-0.9    c0-1.3,0-2.7-0.1-4h1.1c0,1.2-0.1,2.5-0.1,4L172.1,47.3L172.1,47.3z M169.1,42.9v-0.5h4.4v0.5l-1.7,0.1h-0.3L169.1,42.9z"/>
		<path class="st0" d="M175.7,44.9c0,1.9,0.6,2.6,1.8,2.6c1.1,0,2.1-0.6,3-1.7h0.3v0.7h-0.6l0.4-0.2c-0.9,1.2-2.1,2-3.4,2    c-1.6,0-2.4-0.8-2.4-3.3v-4.9l0.3,0.3l-1.8-0.2v-0.5l2.2-0.2l0.2,0.2l-0.1,2.5v2.7H175.7z M175.6,36.1c0-0.4,0.3-0.7,0.7-0.7    s0.7,0.3,0.7,0.7s-0.3,0.7-0.7,0.7C175.9,36.9,175.6,36.6,175.6,36.1z M180.5,48.3l-0.1-2.1v-6l0.3,0.2l-1.8-0.2v-0.5l2.2-0.2    l0.2,0.2l-0.1,2.5v5.7l-0.3-0.5l1.7,0.2v0.5L180.5,48.3z M179.1,36.1c0-0.4,0.3-0.7,0.7-0.7s0.7,0.3,0.7,0.7s-0.3,0.7-0.7,0.7    S179.1,36.6,179.1,36.1z"/>
		<path class="st0" d="M184.6,43.8c0,2.3,1.3,3.8,3.2,3.8c1.1,0,2-0.4,2.7-1.3l0.3,0.2c-0.6,1.1-1.7,1.8-3.2,1.8c-2.4,0-4-1.8-4-4.5    c0-2.8,2-4.5,4.1-4.5c1.4,0,2.6,0.8,3,2.1c-0.1,0.3-0.3,0.5-0.6,0.5c-0.4,0-0.6-0.2-0.7-0.5L189,40l0.7,0.6    c-0.7-0.5-1.3-0.7-2-0.7C185.9,39.9,184.6,41.4,184.6,43.8z"/>
		<path class="st0" d="M193.6,44.9c0,1.9,0.6,2.6,1.8,2.6c1.1,0,2.1-0.6,3-1.7h0.3v0.7h-0.6l0.4-0.2c-0.9,1.2-2.1,2-3.4,2    c-1.6,0-2.4-0.8-2.4-3.3v-4.9l0.3,0.3l-1.8-0.2v-0.5l2.2-0.2l0.2,0.2l-0.1,2.5v2.7H193.6z M193.5,36.1c0-0.4,0.3-0.7,0.7-0.7    s0.7,0.3,0.7,0.7s-0.3,0.7-0.7,0.7S193.5,36.6,193.5,36.1z M198.4,48.3l-0.1-2.1v-6l0.3,0.2l-1.8-0.2v-0.5l2.2-0.2l0.2,0.2    l-0.1,2.5v5.7l-0.3-0.5l1.7,0.2v0.5L198.4,48.3z M197,36.1c0-0.4,0.3-0.7,0.7-0.7s0.7,0.3,0.7,0.7s-0.3,0.7-0.7,0.7    S197,36.6,197,36.1z"/>
		<path class="st0" d="M201.6,52l-0.2-0.4c1.3-0.8,2-1.8,2.2-3.3l0.1,0.5l-0.6-0.5c-0.3-0.3-0.5-0.5-0.5-0.9s0.3-0.7,0.7-0.7    c0.2,0,0.5,0.1,0.8,0.3c0.1,0.3,0.2,0.6,0.2,1C204.2,49.7,203,51.2,201.6,52z"/>
		<path class="st0" d="M212.7,43.5c0.9-0.3,2-0.6,2.9-0.7v0.5c-0.9,0.2-1.9,0.5-2.7,0.8c-1.5,0.6-2,1.3-2,2c0,1,0.7,1.6,1.7,1.6    c0.9,0,1.5-0.4,2.7-1.5l0.3-0.2l0.1,0.4l-0.3,0.3c-1.1,1.2-1.9,1.7-3,1.7c-1.3,0-2.3-0.8-2.3-2.2C209.9,45,210.7,44.2,212.7,43.5z     M215.2,46.4v-4.1c0-1.9-0.6-2.4-2-2.4c-0.7,0-1.3,0.2-2,0.6l0.6-0.5l-0.4,1.4c-0.1,0.4-0.3,0.6-0.6,0.6s-0.5-0.2-0.6-0.5    c0.4-1.3,1.6-2.1,3.2-2.1c1.8,0,2.7,0.8,2.7,2.8v4c0,1.2,0.3,1.5,0.8,1.5c0.3,0,0.5-0.1,0.7-0.3l0.3,0.3c-0.3,0.4-0.8,0.7-1.3,0.7    C215.7,48.3,215.2,47.6,215.2,46.4z"/>
		<path class="st0" d="M222.1,47.7c1.1,0,1.8-0.4,2.7-1.6l0.2,0.4c-0.8,1.3-1.8,1.9-3.1,1.9c-2.1,0-3.6-1.8-3.6-4.4    c0-2.8,1.6-4.6,3.8-4.6c1,0,2,0.5,2.9,1.8l-0.2,0.3c-0.9-1-1.7-1.4-2.6-1.4c-1.6,0-2.9,1.2-2.9,3.9    C219.2,46.5,220.5,47.7,222.1,47.7z M227.2,47.7v0.5l-2.6,0.1v-1.7v-5.4v-0.1v-5.3l-1.6-0.1v-0.5l2.3-0.5l0.3,0.1l-0.1,2.5v10.8    l-0.3-0.7L227.2,47.7z"/>
		<path class="st0" d="M229.3,44.3v-0.9c0-1.2,0-2.1-0.1-2.9l-1.6-0.1V40l2.3-0.6l0.2,0.1v2.2v2.5c0,1.1,0,3,0.1,3.8h-1    C229.2,47.3,229.3,45.5,229.3,44.3z M227.7,47.7l1.9-0.2h0.2l1.7,0.2v0.5h-3.9v-0.5H227.7z"/>
		<path class="st0" d="M233.9,48.1c0-0.8,0.1-2.7,0.1-3.8v-0.9c0-1.2,0-2.1-0.1-2.9l-1.6-0.1V40l2.2-0.6l0.2,0.1l0.1,2v2.8    c0,1.1,0,3,0.1,3.8H233.9z M236.3,47.7v0.5h-3.9v-0.5l1.9-0.2h0.2L236.3,47.7z M240.5,42.6v1.8c0,1.2,0,3,0.1,3.8h-1    c0-0.8,0.1-2.6,0.1-3.8v-1.7c0-1.8-0.6-2.4-1.7-2.4c-0.8,0-1.9,0.4-3.2,1.8h-0.3v-0.6h0.6l-0.4,0.2c1.2-1.5,2.5-2.2,3.7-2.2    C239.7,39.4,240.5,40.3,240.5,42.6z M240.2,47.4l1.7,0.2v0.5H238v-0.5l1.9-0.2H240.2z"/>
		<path class="st0" d="M246.5,47.7c1.1,0,1.8-0.4,2.7-1.6l0.2,0.4c-0.8,1.3-1.8,1.9-3.1,1.9c-2.1,0-3.6-1.8-3.6-4.4    c0-2.8,1.6-4.6,3.8-4.6c1,0,2,0.5,2.9,1.8l-0.2,0.3c-0.9-1-1.7-1.4-2.6-1.4c-1.6,0-2.9,1.2-2.9,3.9    C243.7,46.5,244.9,47.7,246.5,47.7z M251.7,47.7v0.5l-2.6,0.1v-1.7v-5.4v-0.1v-5.3l-1.6-0.1v-0.5l2.3-0.5l0.3,0.1l-0.1,2.5v10.8    l-0.3-0.7L251.7,47.7z"/>
		<path class="st0" d="M254.9,43.5c0.9-0.3,2-0.6,2.9-0.7v0.5c-0.9,0.2-1.9,0.5-2.7,0.8c-1.5,0.6-2,1.3-2,2c0,1,0.7,1.6,1.7,1.6    c0.9,0,1.5-0.4,2.7-1.5l0.3-0.2l0.1,0.4l-0.3,0.3c-1.1,1.2-1.9,1.7-3,1.7c-1.3,0-2.3-0.8-2.3-2.2C252.1,45,252.9,44.2,254.9,43.5z     M257.4,46.4v-4.1c0-1.9-0.6-2.4-2-2.4c-0.7,0-1.3,0.2-2,0.6L254,40l-0.4,1.4c-0.1,0.4-0.3,0.6-0.6,0.6s-0.5-0.2-0.6-0.5    c0.4-1.3,1.6-2.1,3.2-2.1c1.8,0,2.7,0.8,2.7,2.8v4c0,1.2,0.3,1.5,0.8,1.5c0.3,0,0.5-0.1,0.7-0.3l0.3,0.3c-0.3,0.4-0.8,0.7-1.3,0.7    C257.9,48.3,257.4,47.6,257.4,46.4z"/>
		<path class="st0" d="M261.4,47.5c0-0.5,0.4-0.8,0.8-0.8s0.8,0.4,0.8,0.8c0,0.4-0.4,0.8-0.8,0.8S261.4,47.9,261.4,47.5z"/>
	</g>
	<g>
		<path class="st1" d="M22.8,0.4C13.3-1.6,4,4.5,2,14.1C0,23.6,6.1,33,15.7,35c9.5,2,18.9-4.1,20.9-13.7    C38.5,11.8,32.4,2.4,22.8,0.4"/>
		<path class="st0" d="M14.8,15.9c-5.2,1.5-9.6-1.8-10.9-4.4c-0.3,0.9-0.6,1.8-0.8,2.7C3,14.6,3,15,2.9,15.4c0,0.1,0,0.2,0,0.3    s0,0.3,0,0.4c0,0.2,0,0.4,0,0.6v0.1c0,0.3,0,0.5,0,0.8c0,0.6,0,1.1,0.1,1.7l0,0c0,0.3,0.1,0.5,0.1,0.8c0,0.1,0,0.1,0,0.2    c0,0.2,0.1,0.4,0.1,0.5C3,21,3,21.1,3.1,21.2c0,0.1,0,0.2,0.1,0.3c0,0.2,0.1,0.4,0.2,0.6l0,0c0.5,1.7,1.2,3.3,2.2,4.7l0,0    c2.4,3.5,6,6.1,10.3,7l0,0c0.4,0.1,0.7,0.1,1.1,0.2l0,0c0.3,0,0.5,0.1,0.8,0.1c0.1,0,0.3,0,0.4,0s0.2,0,0.3,0c0.2,0,0.5,0,0.7,0    c0.3,0,0.5,0,0.8,0h0.1c0.3,0,0.5,0,0.8-0.1H21c0.2,0,0.4-0.1,0.6-0.1c0.1,0,0.2,0,0.2,0c0.2,0,0.4-0.1,0.6-0.1    c0.1,0,0.2,0,0.3-0.1c0.1,0,0.2,0,0.3-0.1c0.5-0.1,1-0.3,1.4-0.4l0,0c1.5-0.5,2.9-1.2,4.2-2.2c0,0,0.1,0,0.1-0.1    c0.4-0.3,0.7-0.5,1.1-0.8c0.1-0.1,0.2-0.1,0.3-0.2c0.1-0.1,0.2-0.1,0.2-0.2c0.2-0.1,0.3-0.3,0.5-0.4l0.1-0.1    c0.1-0.1,0.3-0.3,0.4-0.4l0.1-0.1c0,0,0-0.1,0.1-0.1C22,36.9,9.5,25.6,14.8,15.9"/>
		<path class="st2" d="M19.2,1.1c-5.8,0-10.9,3-13.8,7.5l0,0c-0.5,0.7-0.9,1.5-1.3,2.3c4.3,3.1,9.3,1.6,13.1,0    c4.3-1.8,11.4-2.9,16,3.4c-1.7-1.7-4-2.6-6.6-2.4c-4.6,0.4-8,4.4-7.7,9c0.4,4.6,4.4,8,9,7.7c3-0.2,7.7-3,7.7-11    C35.8,8.5,28.4,1.1,19.2,1.1"/>
		<g>
			<polygon class="st1" points="40.1,12.1 45.4,12.1 45.4,27.2 50,27.2 50,12.1 55.4,12.1 55.4,8.2 40.1,8.2    "/>
			<path class="st1" d="M92.6,27.2l-5-8.1c1.2-0.4,2.2-1,2.9-1.9c0.7-0.9,1-2,1-3.2c0-1.1-0.2-2-0.6-2.7s-1-1.3-1.7-1.8     c-0.7-0.4-1.5-0.8-2.3-1c-0.9-0.2-1.8-0.3-2.7-0.3H77v19h4.5v-7.5h1.6l4.1,7.5H92.6z M86.7,15.2c-0.2,0.3-0.5,0.5-0.8,0.7     c-0.3,0.2-0.7,0.3-1.1,0.3c-0.4,0.1-0.8,0.1-1.2,0.1h-2.2v-4.4H84c0.3,0,0.7,0,1.1,0.1s0.7,0.2,1,0.3c0.3,0.2,0.5,0.4,0.7,0.6     c0.2,0.3,0.3,0.6,0.3,1.1C87,14.5,86.9,14.9,86.7,15.2"/>
			<polygon class="st1" points="102.8,16.9 111,8.2 105.3,8.2 98.5,15.9 98.4,15.9 98.4,8.2 93.9,8.2 93.9,27.2 98.4,27.2      98.4,18.4 98.4,18.4 105.5,27.2 111.5,27.2    "/>
			<polygon class="st1" points="124.9,27.2 129.5,27.2 129.5,19.1 136.8,8.2 131.4,8.2 127.3,15.2 123.3,8.2 117.7,8.2 124.9,19.1         "/>
			<polygon class="st1" points="150.8,23.3 142,23.3 142,19.3 149.9,19.3 149.9,15.6 142,15.6 142,12 150.3,12 150.3,8.2 137.6,8.2      137.6,27.2 150.8,27.2    "/>
			<path class="st1" d="M69.3,27.1c1-0.4,1.9-0.9,2.6-1.6s1.3-1.5,1.7-2.4c0.4-0.9,0.6-2,0.6-3.1v-7.9h-4.6v7.5c0,0.5-0.1,1-0.2,1.5     s-0.3,0.9-0.6,1.2c-0.3,0.4-0.7,0.7-1.1,0.9c-0.5,0.2-1,0.3-1.7,0.3c-0.6,0-1.2-0.1-1.7-0.3c-0.5-0.2-0.8-0.5-1.1-0.9     s-0.5-0.8-0.6-1.2c-0.1-0.5-0.2-1-0.2-1.5v-7.5h-4.6V20c0,1.1,0.2,2.2,0.6,3.1c0.4,0.9,0.9,1.7,1.6,2.4c0.7,0.7,1.5,1.2,2.5,1.6     s2.1,0.6,3.4,0.6C67.2,27.7,68.3,27.5,69.3,27.1"/>
			<rect x="112.3" y="8.2" class="st1" width="4.6" height="2.8"/>
			<rect x="57.8" y="8.2" class="st1" width="4.6" height="2.8"/>
			<rect x="69.6" y="8.2" class="st1" width="4.6" height="2.8"/>
			<rect x="112.3" y="12.2" class="st1" width="4.6" height="15"/>
			<path class="st1" d="M343.9,11h-4.6V8.2h4.6V11z M343.9,12.2h-4.6v15h4.6V12.2z"/>
			<path class="st1" d="M365.5,11h-4.6V8.2h4.6V11z M365.5,12.2h-4.6v15h4.6V12.2z"/>
			<path class="st1" d="M172.8,27.2v-7.9h-7.4v7.9h-4.6v-19h4.6v7.2h7.4V8.2h4.6v19H172.8z"/>
			<path class="st1" d="M193.1,27.2l-1.5-3.7h-7.4l-1.4,3.7h-5l8-19h4.5l7.9,19H193.1z M188,13.2l-2.4,6.5h4.8L188,13.2z"/>
			<path class="st1" d="M205.3,19.1v8.1h-4.6v-8.1l-7.1-11h5.6l4.1,7l4.1-7h5.4L205.3,19.1z"/>
			<path class="st1" d="M223.9,27.2l-1.5-3.7H215l-1.4,3.7h-5l8-19h4.5l7.9,19H223.9z M218.8,13.2l-2.4,6.5h4.8L218.8,13.2z"/>
			<path class="st1" d="M236.1,12.1v15.1h-4.6V12.1h-5.4V8.2h15.3v3.9H236.1z"/>
			<path class="st1" d="M250.8,27.2v-19h12.8V12h-8.3v3.6h7.9v3.7h-7.9v3.9h8.8v3.9h-13.3V27.2z"/>
			<path class="st1" d="M283.6,27.2l0.1-13.4h-0.1l-4.9,13.4h-3.2l-4.8-13.4h-0.1l0.1,13.4h-4.3v-19h6.5l4.3,12.2h0.1l4.1-12.2h6.6     v19H283.6z"/>
			<path class="st1" d="M291.2,27.2v-19H304V12h-8.3v3.6h7.9v3.7h-7.9v3.9h8.8v3.9h-13.3V27.2z"/>
			<path class="st1" d="M318.4,27.2l-7.1-8.7h-0.1v8.7h-4.5v-19h4.5v7.7h0.1l6.8-7.7h5.7l-8.2,8.7l8.7,10.3H318.4z"/>
			<path class="st1" d="M325.2,27.2v-19h4.6v15h7.4v4H325.2z"/>
			<path class="st1" d="M346.8,27.2v-19h4.6v15h7.4v4H346.8z"/>
			<path class="st1" d="M379.4,27.2l-7.1-8.7h-0.1v8.7h-4.5v-19h4.5v7.7h0.1l6.8-7.7h5.7l-8.2,8.7l8.7,10.3H379.4z"/>
		</g>
	</g>
</g>
</svg>