<?xml version="1.0" encoding="UTF-8"?>
<!-- Generator: Adobe Illustrator 26.2.1, SVG Export Plug-In . SVG Version: 6.00 Build 0)  -->
<svg version="1.1" id="Layer_1" xmlns="http://www.w3.org/2000/svg" xmlns:xlink="http://www.w3.org/1999/xlink" x="0px" y="0px" viewBox="0 0 500 489" style="enable-background:new 0 0 500 489;" xml:space="preserve">
<style type="text/css">
	.st0{clip-path:url(#SVGID_00000142856047177856402220000003400358704439089341_);}
	.st1{clip-path:url(#SVGID_00000065037765467514419320000002635425446825140117_);fill:#FFFFFF;}
	.st2{clip-path:url(#SVGID_00000065037765467514419320000002635425446825140117_);fill:#00ABC8;}
	.st3{clip-path:url(#SVGID_00000065037765467514419320000002635425446825140117_);fill:#E1251B;}
</style>
<g id="Artwork_11_00000093155851917925136730000001434952765769738633_">
	<g>
		<defs>
			<rect id="SVGID_1_" y="1" width="500" height="488"/>
		</defs>
		<clipPath id="SVGID_00000036222928009662933560000010879505625811394689_">
			<use xlink:href="#SVGID_1_" style="overflow:visible;"/>
		</clipPath>
		<g style="clip-path:url(#SVGID_00000036222928009662933560000010879505625811394689_);">
			<defs>
				<rect id="SVGID_00000116195639485306092630000004143709546591439285_" y="1" width="500" height="488"/>
			</defs>
			<clipPath id="SVGID_00000044864138458356132680000004698600903517626811_">
				<use xlink:href="#SVGID_00000116195639485306092630000004143709546591439285_" style="overflow:visible;"/>
			</clipPath>
			<path style="clip-path:url(#SVGID_00000044864138458356132680000004698600903517626811_);fill:#FFFFFF;" d="M301.1,6.2     C166-21.3,33.6,63.2,5.3,195.1C-22.9,327,63.8,456.2,198.9,483.8c135.1,27.6,267.6-57,295.8-188.9S436.2,33.8,301.1,6.2"/>
			<path style="clip-path:url(#SVGID_00000044864138458356132680000004698600903517626811_);fill:#00ABC8;" d="M186.5,220.9     c-74,21-135.9-24.8-154.4-60.7c-5,12.1-8.9,24.8-11.7,38c-1.2,5.4-2.1,10.7-2.8,16.1c-0.2,1.3-0.4,2.6-0.5,3.9     c-0.2,1.9-0.4,3.8-0.6,5.8c-0.3,2.8-0.5,5.5-0.6,8.3c0,0.5-0.1,1-0.1,1.5c-0.2,3.7-0.3,7.5-0.3,11.3c0,7.9,0.4,15.6,1.2,23.3     c0,0.1,0,0.3,0,0.4c0.4,3.5,0.8,7,1.4,10.5c0.1,0.8,0.3,1.5,0.4,2.3c0.4,2.5,0.9,4.9,1.3,7.4c0.4,1.8,0.7,3.6,1.1,5.4     c0.3,1.3,0.6,2.6,0.9,3.9c0.7,2.8,1.4,5.7,2.2,8.5c0.1,0.2,0.1,0.4,0.2,0.6c6.8,23.3,17.3,45.4,31.1,65.4l0,0.1     c33.5,48.6,85.7,83.9,146.4,96.3h0.3c5.3,1.1,10.6,2,15.9,2.7c0.2,0,0.5,0.1,0.7,0.1c3.8,0.5,7.6,0.9,11.3,1.2     c2,0.2,3.9,0.3,5.9,0.4c1.3,0.1,2.6,0.1,3.8,0.2c3.4,0.1,6.9,0.3,10.3,0.3c3.7,0,7.4-0.1,11.1-0.3c0.6,0,1.2-0.1,1.8-0.1     c3.6-0.2,7.3-0.5,10.9-0.8c0.4,0,0.7-0.1,1.1-0.1c3-0.3,6-0.7,9-1.1c1.1-0.2,2.2-0.3,3.2-0.5c3-0.5,6-1,8.9-1.6     c1.6-0.3,3.2-0.7,4.8-1c1.4-0.3,2.9-0.6,4.3-1c6.8-1.6,13.6-3.5,20.2-5.7c0.1,0,0.2-0.1,0.3-0.1c21.3-7.1,41.5-17.2,59.8-29.9     c0.4-0.3,0.8-0.5,1.2-0.8c5.3-3.7,10.4-7.6,15.3-11.7c1.2-1,2.4-2,3.6-3c1.1-1,2.2-1.9,3.3-2.9c2.2-2,4.3-3.9,6.4-6     c0.6-0.6,1.2-1.2,1.9-1.9c1.8-1.8,3.6-3.6,5.3-5.5c0.6-0.6,1.2-1.3,1.8-1.9c0.3-0.4,0.7-0.8,1-1.1     C288.8,510.3,112.2,354.5,186.5,220.9"/>
			<path style="clip-path:url(#SVGID_00000044864138458356132680000004698600903517626811_);fill:#E1251B;" d="M250,16     C168,16,95.9,57.1,53.9,119.3l0.1,0c-6.8,10.1-12.9,20.9-18.1,32.2c61.6,43.5,131.4,22.5,186,0.2     c61.4-25.1,161.5-40.1,227.3,47.6c-23.8-23-57.3-36.1-93.3-33.2c-65.4,5.2-114,61.2-108.7,125.1c5.4,63.8,62.7,110.1,128.1,106     c42.1-2.6,109.3-41.1,109.3-152.2C484.6,118.5,379.6,16,250,16"/>
		</g>
	</g>
</g>
</svg>